<svg width="156" height="56" viewBox="0 0 156 56" fill="none" xmlns="http://www.w3.org/2000/svg">
<path d="M36.9069 23.9888C36.9069 33.0927 29.3817 40.4729 20.0987 40.4729C10.8158 40.4729 4.09093 35.055 4.09093 25.9511C4.09093 16.8472 -5.11362 60.8816 4.09086 54.4057C13.2953 47.9297 36.9069 14.8849 36.9069 23.9888Z" fill="#03A9F4"/>
<path d="M1.40026 31.2742C1.50215 21.9978 9.19626 14.5617 18.5856 14.6654C27.9749 14.769 34.7162 20.3646 34.6143 29.6411C34.5124 38.9175 44.3153 -5.84877 34.9328 0.647176C25.5504 7.14312 1.29837 40.5507 1.40026 31.2742Z" fill="#03A9F4"/>
<path d="M53.536 17.455C54.13 16.789 54.76 16.186 55.426 15.646C56.092 15.106 56.794 14.647 57.532 14.269C58.288 13.873 59.08 13.576 59.908 13.378C60.754 13.162 61.663 13.054 62.635 13.054C64.129 13.054 65.443 13.306 66.577 13.81C67.729 14.296 68.683 14.998 69.439 15.916C70.213 16.816 70.798 17.905 71.194 19.183C71.59 20.461 71.788 21.874 71.788 23.422V40.837H66.955V23.422C66.955 21.352 66.478 19.75 65.524 18.616C64.588 17.464 63.157 16.888 61.231 16.888C59.809 16.888 58.477 17.23 57.235 17.914C56.011 18.598 54.877 19.525 53.833 20.695V40.837H49V13.486H51.889C52.573 13.486 52.996 13.819 53.158 14.485L53.536 17.455Z" fill="black"/>
<path d="M90.6403 13.054C92.6383 13.054 94.4383 13.387 96.0403 14.053C97.6423 14.719 99.0103 15.664 100.144 16.888C101.278 18.112 102.142 19.597 102.736 21.343C103.348 23.071 103.654 25.006 103.654 27.148C103.654 29.308 103.348 31.252 102.736 32.98C102.142 34.708 101.278 36.184 100.144 37.408C99.0103 38.632 97.6423 39.577 96.0403 40.243C94.4383 40.891 92.6383 41.215 90.6403 41.215C88.6243 41.215 86.8063 40.891 85.1863 40.243C83.5843 39.577 82.2163 38.632 81.0823 37.408C79.9483 36.184 79.0753 34.708 78.4633 32.98C77.8693 31.252 77.5723 29.308 77.5723 27.148C77.5723 25.006 77.8693 23.071 78.4633 21.343C79.0753 19.597 79.9483 18.112 81.0823 16.888C82.2163 15.664 83.5843 14.719 85.1863 14.053C86.8063 13.387 88.6243 13.054 90.6403 13.054ZM90.6403 37.462C93.3403 37.462 95.3563 36.562 96.6883 34.762C98.0203 32.944 98.6863 30.415 98.6863 27.175C98.6863 23.917 98.0203 21.379 96.6883 19.561C95.3563 17.743 93.3403 16.834 90.6403 16.834C89.2723 16.834 88.0753 17.068 87.0493 17.536C86.0413 18.004 85.1953 18.679 84.5113 19.561C83.8453 20.443 83.3413 21.532 82.9993 22.828C82.6753 24.106 82.5133 25.555 82.5133 27.175C82.5133 30.415 83.1793 32.944 84.5113 34.762C85.8613 36.562 87.9043 37.462 90.6403 37.462Z" fill="black"/>
<path d="M132.448 13.486L121.297 40.837H116.977L105.826 13.486H109.741C110.137 13.486 110.461 13.585 110.713 13.783C110.965 13.981 111.136 14.215 111.226 14.485L118.165 32.089C118.381 32.755 118.57 33.403 118.732 34.033C118.894 34.663 119.047 35.293 119.191 35.923C119.335 35.293 119.488 34.663 119.65 34.033C119.812 33.403 120.01 32.755 120.244 32.089L127.264 14.485C127.372 14.197 127.552 13.963 127.804 13.783C128.056 13.585 128.353 13.486 128.695 13.486H132.448Z" fill="black"/>
<path d="M151.098 28.525C148.884 28.597 146.994 28.777 145.428 29.065C143.88 29.335 142.611 29.695 141.621 30.145C140.649 30.595 139.938 31.126 139.488 31.738C139.056 32.35 138.84 33.034 138.84 33.79C138.84 34.51 138.957 35.131 139.191 35.653C139.425 36.175 139.74 36.607 140.136 36.949C140.55 37.273 141.027 37.516 141.567 37.678C142.125 37.822 142.719 37.894 143.349 37.894C144.195 37.894 144.969 37.813 145.671 37.651C146.373 37.471 147.03 37.219 147.642 36.895C148.272 36.571 148.866 36.184 149.424 35.734C150 35.284 150.558 34.771 151.098 34.195V28.525ZM135.573 17.347C137.085 15.889 138.714 14.8 140.46 14.08C142.206 13.36 144.141 13 146.265 13C147.795 13 149.154 13.252 150.342 13.756C151.53 14.26 152.529 14.962 153.339 15.862C154.149 16.762 154.761 17.851 155.175 19.129C155.589 20.407 155.796 21.811 155.796 23.341V40.837H153.663C153.195 40.837 152.835 40.765 152.583 40.621C152.331 40.459 152.133 40.153 151.989 39.703L151.449 37.111C150.729 37.777 150.027 38.371 149.343 38.893C148.659 39.397 147.939 39.829 147.183 40.189C146.427 40.531 145.617 40.792 144.753 40.972C143.907 41.17 142.962 41.269 141.918 41.269C140.856 41.269 139.857 41.125 138.921 40.837C137.985 40.531 137.166 40.081 136.464 39.487C135.78 38.893 135.231 38.146 134.817 37.246C134.421 36.328 134.223 35.248 134.223 34.006C134.223 32.926 134.52 31.891 135.114 30.901C135.708 29.893 136.671 29.002 138.003 28.228C139.335 27.454 141.072 26.824 143.214 26.338C145.356 25.834 147.984 25.546 151.098 25.474V23.341C151.098 21.217 150.639 19.615 149.721 18.535C148.803 17.437 147.462 16.888 145.698 16.888C144.51 16.888 143.511 17.041 142.701 17.347C141.909 17.635 141.216 17.968 140.622 18.346C140.046 18.706 139.542 19.039 139.11 19.345C138.696 19.633 138.282 19.777 137.868 19.777C137.544 19.777 137.265 19.696 137.031 19.534C136.797 19.354 136.599 19.138 136.437 18.886L135.573 17.347Z" fill="black"/>
</svg>
